<?xml version="1.0" encoding="utf-8"?><svg xmlns="http://www.w3.org/2000/svg" xmlns:xlink="http://www.w3.org/1999/xlink"><symbol viewBox="0 0 512 512" id="facebook"><path d="M173.8 99.5v71.1h-53.3V256h53.3v256h106.7V256h71.1s7.1-42.7 10.7-85.3h-81.8v-60.4c0-7.1 10.7-21.3 21.3-21.3h56.9V.1h-78.2C173.8-.1 173.8 88.8 173.8 99.5z"/></symbol><symbol viewBox="0 0 512 512" id="ghost"><path d="M251.9 0C137.3 0 44.2 99.9 44.2 222.6v273.2c0 6.6 4.1 12.5 10.2 14.9 1.8.7 3.8 1.1 5.8 1.1 4.4 0 8.7-1.8 11.9-5.3l60.3-66.5 47.2 65.2c3 4.1 7.8 6.6 12.8 6.6h.1c5 0 9.8-2.4 12.8-6.4l47.4-63.6 46.6 63.6c3 4.1 7.8 6.6 12.9 6.6s9.9-2.4 12.9-6.5l47.8-65.1 59 66.3c4.4 4.9 11.5 6.7 17.6 4.3 6.2-2.4 10.3-8.3 10.3-14.9V222.6C459.6 99.9 366.3 0 251.9 0zm175.7 453.8l-44.2-49.7c-3.2-3.6-7.9-5.7-12.7-5.3-4.8.2-9.3 2.6-12.2 6.5L312 468.8l-46.5-63.4c-3-4.1-7.8-6.5-12.8-6.6h-.1c-5.1 0-9.8 2.4-12.8 6.4l-47.3 63.6-46-63.5c-2.8-3.9-7.3-6.3-12.1-6.6h-.9c-4.5 0-8.8 1.9-11.9 5.3l-45.7 50.4V222.6c.3-105.1 79-190.6 176-190.6s175.7 85.6 175.7 190.6v231.2zM331.8 176c-17.6 0-31.9 14.3-31.9 31.9s14.3 31.9 31.9 31.9c17.6 0 31.9-14.3 31.9-31.9S349.4 176 331.8 176zm-159.9 0c-17.6 0-31.9 14.3-31.9 31.9s14.3 31.9 31.9 31.9 31.9-14.3 31.9-31.9-14.2-31.9-31.9-31.9z"/></symbol><symbol viewBox="0 0 512 512" id="google"><path d="M277.5 38.2h-134C83.5 38.2 27 83.7 27 136.4c0 53.9 40.9 97.3 102 97.3 4.3 0 8.4-.1 12.4-.4-4 7.6-6.8 16.2-6.8 25 0 15 8 27.1 18.3 37-7.7 0-15.1.2-23.2.2C55.3 295.5-2 342.9-2 392c0 48.4 62.8 78.6 137.2 78.6 84.8 0 131.7-48.1 131.7-96.5 0-38.8-11.4-62-46.8-87.1-12.1-8.6-35.3-29.4-35.3-41.6 0-14.4 4.1-21.5 25.7-38.3 22.2-17.3 37.8-41.6 37.8-69.9 0-33.7-15-66.5-43.2-77.4h42.5l29.9-21.6zM230.8 366c1.1 4.5 1.6 9.1 1.6 13.8 0 39.1-25.2 69.7-97.5 69.7-51.4 0-88.5-32.6-88.5-71.6 0-38.3 46-70.2 97.5-69.7 12 .1 23.2 2.1 33.3 5.3 28 19.3 48 30.3 53.6 52.5zm-82.3-145.9c-34.5-1.1-67.3-38.6-73.3-83.9-6-45.3 17.2-80 51.7-79 34.5 1.1 67.3 37.4 73.3 82.7s-17.2 81.2-51.7 80.2zM414 134.2v-96h-32v96h-96v32h96v96h32v-96h96v-32h-96z"/></symbol><symbol viewBox="0 0 720 720" id="twitter"><path d="M502.6 76.4c42.5 0 80.7 17.3 107.9 45.3 33.6-6.5 65.3-18.3 93.8-34.7-11 33.5-34.5 61.5-64.8 79.2 29.8-3.5 58.4-11.3 84.8-22.6-19.8 28.7-44.9 54-73.7 74.1.3 6.2.4 12.4.4 18.6C651 425.6 502.5 644 230.7 644c-83.4 0-161-23.8-226.4-64.4 11.5 1.4 23.3 2 35.2 2 69.2 0 132.9-22.9 183.4-61.3-64.7-1.1-119.3-42.6-138-99.4 9 1.7 18.3 2.5 27.8 2.5 13.5 0 26.6-1.7 38.8-5.1C84 405 32.9 347.1 32.9 277.6v-1.8c20 10.7 42.6 17.2 66.9 17.9-39.7-25.7-65.7-69.5-65.7-119.3 0-26.3 7.3-50.9 20-72 72.8 86.5 181.7 143.4 304.5 149.5-2.5-10.4-3.8-21.5-3.8-32.6-.1-79 66.1-143.1 147.8-142.9zm221.5 67z"/></symbol><symbol viewBox="0 0 512 512" id="youtube"><path d="M309.1 50.5v111.7c0 9.6.8 16.7 2.3 21.3 2.5 7 8 10.5 16.7 10.5 9.4 0 19.2-5.8 29.2-17.6V192h25.8V50.5h-25.8v108c-5.7 8.1-11.1 12.2-16.2 12.2-3.4 0-5.4-2.1-6-6.2-.2-.4-.3-3.7-.3-9.9v-104h-25.7zm-59 143.4c13 0 23.1-4.8 30-14.5 5.3-7 7.9-18.1 7.9-33.5V96.4c0-15.1-2.6-26.2-7.9-33.2-7-9.6-17-14.5-30-14.5-12.7 0-22.6 4.8-29.8 14.5-5.3 7-7.9 18.1-7.9 33.2V146c0 15.1 2.6 26.3 7.9 33.5 7.2 9.6 17.1 14.4 29.8 14.4zM237.9 91.3c0-13 4.1-19.6 12.2-19.6s12.2 6.5 12.2 19.6v59.5c0 13.2-4.1 19.8-12.2 19.8s-12.2-6.6-12.2-19.8V91.3zm-60.1 100.6v-76.8L212.1 2h-28.9l-19.3 74.6L143.8 2h-30c5.3 15.9 11.4 33.6 18.4 53 8.9 26.1 14.6 46.1 17.3 60.1v76.8h28.3zm264.6 44.5c-8.4-7.6-18.1-12-29.1-13.3-34.8-3.8-87.2-5.7-157.3-5.7-70.1 0-122.5 1.9-157 5.7-11.2 1.3-20.9 5.8-29.2 13.3-8.3 7.6-13.8 16.9-16.4 28.1-4.9 21.9-7.4 55-7.4 99.2 0 45 2.5 78 7.4 99.2 2.5 11.1 7.9 20.5 16.3 28.1 8.4 7.6 18.1 11.9 29.1 13 34.8 4 87.2 5.9 157.3 5.9 70.1 0 122.6-2 157.3-5.9 11-1.1 20.6-5.5 28.9-13 8.3-7.6 13.8-16.9 16.4-28.1 4.9-21.9 7.4-55 7.4-99.2 0-45-2.5-78-7.4-99.2-2.4-11.1-7.8-20.5-16.3-28.1zm-276.5 56.7h-30.3v161.3h-28.3V293.1H77.5v-26.6h88.4v26.6zm76.5 161.3h-25.2v-15.3c-10.2 11.5-19.8 17.3-28.9 17.3-8.7 0-14.2-3.5-16.4-10.5-1.5-4.5-2.3-11.4-2.3-20.7V314.4h25.2v103.2c0 6 .1 9.4.3 9.9.6 4 2.6 5.9 6 5.9 5.1 0 10.5-4 16.2-11.9V314.4h25.2l-.1 140zm96.4-41.9c0 13.8-.8 23.2-2.6 28.3-3.2 10.4-9.9 15.6-20.1 15.6-9.1 0-17.9-5.2-26.4-15.6v13.6h-25.2V266.5h25.2V328c8.1-10.2 16.9-15.3 26.4-15.3 10.2 0 16.9 5.3 20.1 15.9 1.7 4.9 2.6 14.3 2.6 28.1v55.8zm95.8-23.3h-50.7v24.7c0 13 4.3 19.6 13 19.6 6.2 0 10-3.4 11.3-10.2.4-1.9.6-7.7.6-17.3h25.8v3.7c0 9.3-.2 14.7-.6 16.4-.6 5.1-2.6 10.2-6 15.3-6.8 10-17 15-30.6 15-13 0-23.2-4.8-30.6-14.5-5.5-7-8.2-17.9-8.2-32.9v-49c0-14.9 2.6-25.9 7.9-32.9 7.4-9.6 17.5-14.5 30.3-14.5 12.7 0 22.7 4.8 30 14.5 5.1 7 7.7 18 7.7 32.9l.1 29.2z"/><path d="M396.7 335.7c-8.5 0-12.8 6.4-12.8 19.3v13h25.5v-13c0-12.9-4.2-19.3-12.7-19.3zm-94.2 0c-4.3 0-8.6 2.1-12.8 6.2v85.3c4.2 4.2 8.4 6.2 12.8 6.2 7.4 0 11.1-6.3 11.1-19v-59.8c0-12.6-3.7-18.9-11.1-18.9z"/></symbol></svg>