<?xml version="1.0" encoding="utf-8"?>
<!-- Generator: Adobe Illustrator 18.1.1, SVG Export Plug-In . SVG Version: 6.00 Build 0)  -->
<!DOCTYPE svg PUBLIC "-//W3C//DTD SVG 1.1//EN" "http://www.w3.org/Graphics/SVG/1.1/DTD/svg11.dtd">
<svg version="1.1" id="Capa_1" xmlns="http://www.w3.org/2000/svg" xmlns:xlink="http://www.w3.org/1999/xlink" x="0px" y="0px"
	 viewBox="0 0 512 512" enable-background="new 0 0 512 512" xml:space="preserve">
<g>
	<path fill="#444444" d="M309.1,50.5v111.7c0,9.6,0.8,16.7,2.3,21.3c2.5,7,8,10.5,16.7,10.5c9.4,0,19.2-5.8,29.2-17.6v15.6h25.8
		V50.5h-25.8v108c-5.7,8.1-11.1,12.2-16.2,12.2c-3.4,0-5.4-2.1-6-6.2c-0.2-0.4-0.3-3.7-0.3-9.9v-104H309.1z"/>
	<path fill="#444444" d="M250.1,193.9c13,0,23.1-4.8,30-14.5c5.3-7,7.9-18.1,7.9-33.5V96.4c0-15.1-2.6-26.2-7.9-33.2
		c-7-9.6-17-14.5-30-14.5c-12.7,0-22.6,4.8-29.8,14.5c-5.3,7-7.9,18.1-7.9,33.2V146c0,15.1,2.6,26.3,7.9,33.5
		C227.5,189.1,237.4,193.9,250.1,193.9z M237.9,91.3c0-13,4.1-19.6,12.2-19.6c8.1,0,12.2,6.5,12.2,19.6v59.5
		c0,13.2-4.1,19.8-12.2,19.8c-8.1,0-12.2-6.6-12.2-19.8V91.3z"/>
	<path fill="#444444" d="M177.8,191.9v-76.8L212.1,2h-28.9l-19.3,74.6L143.8,2h-30c5.3,15.9,11.4,33.6,18.4,53
		c8.9,26.1,14.6,46.1,17.3,60.1v76.8L177.8,191.9L177.8,191.9z"/>
	<path fill="#444444" d="M442.4,236.4c-8.4-7.6-18.1-12-29.1-13.3c-34.8-3.8-87.2-5.7-157.3-5.7c-70.1,0-122.5,1.9-157,5.7
		c-11.2,1.3-20.9,5.8-29.2,13.3c-8.3,7.6-13.8,16.9-16.4,28.1c-4.9,21.9-7.4,55-7.4,99.2c0,45,2.5,78,7.4,99.2
		c2.5,11.1,7.9,20.5,16.3,28.1c8.4,7.6,18.1,11.9,29.1,13c34.8,4,87.2,5.9,157.3,5.9c70.1,0,122.6-2,157.3-5.9
		c11-1.1,20.6-5.5,28.9-13c8.3-7.6,13.8-16.9,16.4-28.1c4.9-21.9,7.4-55,7.4-99.2c0-45-2.5-78-7.4-99.2
		C456.3,253.4,450.9,244,442.4,236.4z M165.9,293.1h-30.3v161.3h-28.3V293.1H77.5v-26.6h88.4L165.9,293.1L165.9,293.1z M242.4,454.4
		h-25.2v-15.3c-10.2,11.5-19.8,17.3-28.9,17.3c-8.7,0-14.2-3.5-16.4-10.5c-1.5-4.5-2.3-11.4-2.3-20.7V314.4h25.2v103.2
		c0,6,0.1,9.4,0.3,9.9c0.6,4,2.6,5.9,6,5.9c5.1,0,10.5-4,16.2-11.9V314.4h25.2L242.4,454.4L242.4,454.4z M338.8,412.5
		c0,13.8-0.8,23.2-2.6,28.3c-3.2,10.4-9.9,15.6-20.1,15.6c-9.1,0-17.9-5.2-26.4-15.6v13.6h-25.2V266.5h25.2V328
		c8.1-10.2,16.9-15.3,26.4-15.3c10.2,0,16.9,5.3,20.1,15.9c1.7,4.9,2.6,14.3,2.6,28.1V412.5z M434.6,389.2h-50.7v24.7
		c0,13,4.3,19.6,13,19.6c6.2,0,10-3.4,11.3-10.2c0.4-1.9,0.6-7.7,0.6-17.3h25.8v3.7c0,9.3-0.2,14.7-0.6,16.4
		c-0.6,5.1-2.6,10.2-6,15.3c-6.8,10-17,15-30.6,15c-13,0-23.2-4.8-30.6-14.5c-5.5-7-8.2-17.9-8.2-32.9v-49c0-14.9,2.6-25.9,7.9-32.9
		c7.4-9.6,17.5-14.5,30.3-14.5c12.7,0,22.7,4.8,30,14.5c5.1,7,7.7,18,7.7,32.9L434.6,389.2L434.6,389.2z"/>
	<path fill="#444444" d="M396.7,335.7c-8.5,0-12.8,6.4-12.8,19.3v13h25.5v-13C409.4,342.1,405.2,335.7,396.7,335.7z"/>
	<path fill="#444444" d="M302.5,335.7c-4.3,0-8.6,2.1-12.8,6.2v85.3c4.2,4.2,8.4,6.2,12.8,6.2c7.4,0,11.1-6.3,11.1-19v-59.8
		C313.6,342,309.9,335.7,302.5,335.7z"/>
</g>
</svg>
