<?xml version="1.0" encoding="utf-8"?>
<!-- Generator: Adobe Illustrator 19.2.0, SVG Export Plug-In . SVG Version: 6.00 Build 0)  -->
<svg version="1.1" id="Capa_1" xmlns="http://www.w3.org/2000/svg" xmlns:xlink="http://www.w3.org/1999/xlink" x="0px" y="0px"
	 viewBox="0 0 12 5.2" style="enable-background:new 0 0 12 5.2;" xml:space="preserve">
<style type="text/css">
	.st0{fill:#0A0B0C;}
</style>
<g>
	<path class="st0" d="M1.9,2.3C2,2,2.7,2.1,3.1,2.6c0.5-0.2,0.6-0.3,1.2-0.3C5.7,1.4,6.4,0.1,7.1,1c0,0.1,0-0.3,0.1-0.4
		c0.2-0.4-0.9-0.3-1.3-0.2C5.5,0.6,4.9,0.1,5.4,0C5.5,0,5.7,0,6,0.1c0.4-0.1,1.3,0,1.6,0.5c0.3-0.3,0.9-0.4,0.9-0.2
		c0,0,0.1,0.7-0.4,0.7l1.5,1.6c0.3-0.2,0.6-0.3,0.9-0.3C11.4,2.3,12,3,12,3.8c0,0.8-0.7,1.5-1.5,1.5c-0.8,0-1.5-0.7-1.5-1.5
		c0-0.3,0.1-0.7,0.3-0.9L8,1.4C7.2,1.3,6.9,3.2,6.6,3.7c0.2,0.2,0.2,0.6,0,0.7C6.4,4.6,6.3,4.5,6,4.9c-2.1,0-1.1,0-3.2,0
		C3,4,3.5,2.8,1.9,2.3z M10,3l0.4,0.4c0.1,0,0.1,0,0.2,0c0.2,0,0.4,0.2,0.4,0.4s-0.2,0.4-0.4,0.4c-0.2,0-0.4-0.2-0.4-0.4
		c0-0.1,0-0.1,0-0.1L9.8,3.2C9.7,3.3,9.6,3.5,9.6,3.8c0,0.5,0.4,1,1,1c0.5,0,1-0.4,1-1c0-0.5-0.4-1-1-1C10.4,2.8,10.1,2.9,10,3z
		 M1.5,2.3c0.8,0,1.5,0.7,1.5,1.5c0,0.8-0.7,1.5-1.5,1.5C0.7,5.2,0,4.6,0,3.8C0,3,0.7,2.3,1.5,2.3z M1.5,3.4c0.2,0,0.4,0.2,0.4,0.4
		S1.7,4.1,1.5,4.1C1.2,4.1,1.1,4,1.1,3.8C1.1,3.5,1.2,3.4,1.5,3.4z M1.5,2.9c0.5,0,0.8,0.4,0.8,0.8S1.9,4.6,1.5,4.6
		C1,4.6,0.6,4.2,0.6,3.8C0.6,3.3,1,2.9,1.5,2.9z M6.9,2.2c-0.2,0.7-0.4,1-0.6,1.7C6.2,3.9,6.2,4,6,3.9c0.5-0.7,0.4-1.4-0.5-1.3
		C5.3,2.6,5.6,2.2,6.9,2.2z"/>
</g>
</svg>
