<?xml version="1.0" encoding="utf-8"?>
<!-- Generator: Adobe Illustrator 18.1.1, SVG Export Plug-In . SVG Version: 6.00 Build 0)  -->
<!DOCTYPE svg PUBLIC "-//W3C//DTD SVG 1.1//EN" "http://www.w3.org/Graphics/SVG/1.1/DTD/svg11.dtd">
<svg version="1.1" id="Capa_1" xmlns="http://www.w3.org/2000/svg" xmlns:xlink="http://www.w3.org/1999/xlink" x="0px" y="0px"
	 viewBox="0 0 512 512" enable-background="new 0 0 512 512" xml:space="preserve">
<path fill="#444444" d="M173.8,99.5c0,14.2,0,71.1,0,71.1h-53.3V256h53.3v256h106.7V256h71.1c0,0,7.1-42.7,10.7-85.3
	c-10.7,0-81.8,0-81.8,0s0-49.8,0-60.4c0-7.1,10.7-21.3,21.3-21.3s35.6,0,56.9,0c0-10.7,0-53.3,0-88.9c-28.4,0-64,0-78.2,0
	C173.8-0.1,173.8,88.8,173.8,99.5z"/>
</svg>
