<?xml version="1.0" encoding="utf-8"?>
<!-- Generator: Adobe Illustrator 18.1.1, SVG Export Plug-In . SVG Version: 6.00 Build 0)  -->
<!DOCTYPE svg PUBLIC "-//W3C//DTD SVG 1.1//EN" "http://www.w3.org/Graphics/SVG/1.1/DTD/svg11.dtd">
<svg version="1.1" id="Capa_1" xmlns="http://www.w3.org/2000/svg" xmlns:xlink="http://www.w3.org/1999/xlink" x="0px" y="0px"
	 viewBox="0 0 512 512" enable-background="new 0 0 512 512" xml:space="preserve">
<path fill="#444444" d="M251.9,0C137.3,0,44.2,99.9,44.2,222.6v273.2c0,6.6,4.1,12.5,10.2,14.9c1.8,0.7,3.8,1.1,5.8,1.1
	c4.4,0,8.7-1.8,11.9-5.3l60.3-66.5l47.2,65.2c3,4.1,7.8,6.6,12.8,6.6h0.1c5,0,9.8-2.4,12.8-6.4l47.4-63.6l46.6,63.6
	c3,4.1,7.8,6.6,12.9,6.6s9.9-2.4,12.9-6.5l47.8-65.1l59,66.3c4.4,4.9,11.5,6.7,17.6,4.3c6.2-2.4,10.3-8.3,10.3-14.9V222.6
	C459.6,99.9,366.3,0,251.9,0L251.9,0z M427.6,453.8l-44.2-49.7c-3.2-3.6-7.9-5.7-12.7-5.3c-4.8,0.2-9.3,2.6-12.2,6.5L312,468.8
	l-46.5-63.4c-3-4.1-7.8-6.5-12.8-6.6h-0.1c-5.1,0-9.8,2.4-12.8,6.4l-47.3,63.6l-46-63.5c-2.8-3.9-7.3-6.3-12.1-6.6
	c-0.3,0-0.6,0-0.9,0c-4.5,0-8.8,1.9-11.9,5.3l-45.7,50.4V222.6C76.2,117.5,154.9,32,251.9,32s175.7,85.6,175.7,190.6V453.8
	L427.6,453.8z M331.8,176c-17.6,0-31.9,14.3-31.9,31.9s14.3,31.9,31.9,31.9c17.6,0,31.9-14.3,31.9-31.9S349.4,176,331.8,176z
	 M171.9,176c-17.6,0-31.9,14.3-31.9,31.9s14.3,31.9,31.9,31.9s31.9-14.3,31.9-31.9S189.6,176,171.9,176z"/>
</svg>
