<?xml version="1.0" encoding="utf-8"?>
<!-- Generator: Adobe Illustrator 19.2.0, SVG Export Plug-In . SVG Version: 6.00 Build 0)  -->
<svg version="1.1" id="Capa_1" xmlns="http://www.w3.org/2000/svg" xmlns:xlink="http://www.w3.org/1999/xlink" x="0px" y="0px"
	 viewBox="0 0 66.5 63.9" style="enable-background:new 0 0 66.5 63.9;" xml:space="preserve">
<g>
	<g>
		<path d="M2.5,46.2L3.3,47l1.2-1.2c-0.2-0.4-0.4-0.7-0.5-1.1L2.5,46.2z"/>
		<path d="M62,45.9l1.2,1.2l0.8-0.8l-1.4-1.4C62.3,45.1,62.1,45.5,62,45.9z"/>
		<path d="M66.5,15.2L64,17.7v0l-1.4,1.4l1.4-1.5l-0.8-0.8L62,18.1c-0.6-1.3-1.4-2.6-2.2-3.8c0,0,0,0,0,0c-0.4-0.6-0.8-1.2-1.3-1.8
			c0,0,0,0,0,0c-0.4-0.6-0.9-1.1-1.3-1.6c0,0-0.1-0.1-0.1-0.1c-0.5-0.5-0.9-1-1.4-1.5c0,0-0.1-0.1-0.1-0.1c-0.5-0.5-1-0.9-1.4-1.3
			c-0.1-0.1-0.2-0.1-0.2-0.2c-0.5-0.4-1-0.8-1.5-1.2c-0.1-0.1-0.2-0.2-0.3-0.2c-0.5-0.3-1-0.7-1.5-1c-0.1-0.1-0.3-0.2-0.4-0.3
			c-0.5-0.3-1-0.6-1.4-0.9c-0.2-0.1-0.4-0.2-0.6-0.3c-0.5-0.2-0.9-0.5-1.4-0.7c-0.2-0.1-0.5-0.2-0.7-0.3c-0.4-0.2-0.9-0.4-1.3-0.6
			C44.3,2,44,1.9,43.7,1.8c-0.4-0.1-0.8-0.3-1.3-0.4c-0.3-0.1-0.7-0.2-1-0.3C41,1,40.6,0.9,40.2,0.8c-0.4-0.1-0.8-0.2-1.2-0.2
			c-0.4-0.1-0.7-0.1-1.1-0.2c-0.5-0.1-1-0.1-1.5-0.2c-0.3,0-0.6-0.1-0.9-0.1C34.8,0,34,0,33.2,0s-1.6,0-2.4,0.1
			c-0.3,0-0.6,0.1-0.9,0.1c-0.5,0-1,0.1-1.5,0.2c-0.4,0.1-0.7,0.1-1.1,0.2c-0.4,0.1-0.8,0.1-1.2,0.2C25.8,0.9,25.4,1,25,1.1
			c-0.3,0.1-0.7,0.2-1,0.3c-0.4,0.1-0.8,0.3-1.3,0.4c-0.3,0.1-0.6,0.2-0.9,0.3c-0.4,0.2-0.9,0.4-1.3,0.6C20.3,2.7,20,2.8,19.8,3
			c-0.5,0.2-0.9,0.5-1.4,0.7C18.2,3.8,18,3.9,17.8,4c-0.5,0.3-0.9,0.5-1.4,0.8c-0.2,0.1-0.3,0.2-0.5,0.3c-0.5,0.3-1,0.7-1.4,1
			c-0.1,0.1-0.2,0.2-0.4,0.3c-0.5,0.4-1,0.8-1.5,1.2c-0.1,0.1-0.2,0.1-0.2,0.2c-0.5,0.4-1,0.9-1.4,1.3c-0.1,0.1-0.1,0.1-0.2,0.2
			c-0.5,0.5-0.9,1-1.4,1.5c0,0-0.1,0.1-0.1,0.1c-0.5,0.5-0.9,1.1-1.3,1.6c0,0,0,0,0,0.1c-0.4,0.6-0.9,1.2-1.3,1.8c0,0,0,0,0,0
			c-0.8,1.2-1.6,2.5-2.2,3.8l-1.2-1.2l-0.8,0.8L0,15.2L4.1,32L0,48.7l2.5-2.5l0,0L4,44.7c0.2,0.4,0.4,0.8,0.6,1l-0.1,0.1
			c5.2,10.7,16.1,18.1,28.7,18.1c12.7,0,23.6-7.4,28.7-18.1l-0.1-0.1c0.2-0.3,0.4-0.6,0.6-1l1.4,1.4l0,0l2.5,2.5L63.1,32L66.5,15.2z
			 M33.2,60.7c-10.9,0-20.4-6.1-25.2-15c5.8-5.4,15-30.3,25.2-30.3c10.3,0,19.4,25,25.2,30.3C53.6,54.6,44.1,60.7,33.2,60.7z"/>
	</g>
	<ellipse cx="21.3" cy="34.3" rx="2.4" ry="4.7"/>
	<ellipse cx="45" cy="34.3" rx="2.4" ry="4.7"/>
	<ellipse cx="33.2" cy="52.1" rx="3.1" ry="1.2"/>
</g>
</svg>
