<?xml version="1.0" encoding="utf-8"?>
<!-- Generator: Adobe Illustrator 18.1.1, SVG Export Plug-In . SVG Version: 6.00 Build 0)  -->
<!DOCTYPE svg PUBLIC "-//W3C//DTD SVG 1.1//EN" "http://www.w3.org/Graphics/SVG/1.1/DTD/svg11.dtd">
<svg version="1.1" id="Capa_1" xmlns="http://www.w3.org/2000/svg" xmlns:xlink="http://www.w3.org/1999/xlink" x="0px" y="0px"
	 viewBox="0 0 512 512" enable-background="new 0 0 512 512" xml:space="preserve">
<path fill="#444444" d="M277.5,38.2c0,0-100.5,0-134,0C83.5,38.2,27,83.7,27,136.4c0,53.9,40.9,97.3,102,97.3
	c4.3,0,8.4-0.1,12.4-0.4c-4,7.6-6.8,16.2-6.8,25c0,15,8,27.1,18.3,37c-7.7,0-15.1,0.2-23.2,0.2C55.3,295.5-2,342.9-2,392
	c0,48.4,62.8,78.6,137.2,78.6c84.8,0,131.7-48.1,131.7-96.5c0-38.8-11.4-62-46.8-87.1c-12.1-8.6-35.3-29.4-35.3-41.6
	c0-14.4,4.1-21.5,25.7-38.3c22.2-17.3,37.8-41.6,37.8-69.9c0-33.7-15-66.5-43.2-77.4h42.5L277.5,38.2L277.5,38.2z M230.8,366
	c1.1,4.5,1.6,9.1,1.6,13.8c0,39.1-25.2,69.7-97.5,69.7c-51.4,0-88.5-32.6-88.5-71.6c0-38.3,46-70.2,97.5-69.7
	c12,0.1,23.2,2.1,33.3,5.3C205.2,332.8,225.2,343.8,230.8,366z M148.5,220.1c-34.5-1.1-67.3-38.6-73.3-83.9c-6-45.3,17.2-80,51.7-79
	c34.5,1.1,67.3,37.4,73.3,82.7S183,221.1,148.5,220.1L148.5,220.1z M414,134.2v-96h-32v96h-96v32h96v96h32v-96h96v-32L414,134.2
	L414,134.2z"/>
</svg>
