<?xml version="1.0" encoding="utf-8"?>
<!-- Generator: Adobe Illustrator 19.2.0, SVG Export Plug-In . SVG Version: 6.00 Build 0)  -->
<svg version="1.1" id="Capa_1" xmlns="http://www.w3.org/2000/svg" xmlns:xlink="http://www.w3.org/1999/xlink" x="0px" y="0px"
	 viewBox="0 0 66.7 80" style="enable-background:new 0 0 66.7 80;" xml:space="preserve">
<g>
	<path d="M33.3,0C15,0,0,15,0,33.3C0,44,5,53.7,13.3,60v16.7c0,2,1.3,3.3,3.3,3.3H50c2,0,3.3-1.3,3.3-3.3V60
		c8.3-6.3,13.3-16,13.3-26.7C66.7,15,51.7,0,33.3,0z M48,55.7c-0.7,0.7-1.3,1.7-1.3,2.7v15h-3.3v-6.7c0-2-1.3-3.3-3.3-3.3
		c-2,0-3.3,1.3-3.3,3.3v6.7H30v-6.7c0-2-1.3-3.3-3.3-3.3s-3.3,1.3-3.3,3.3v6.7H20v-15c0-1.3-0.7-2.3-1.3-2.7c-7.7-4.7-12-13-12-22
		C6.7,19,18.7,7,33.3,7C48,7,60,19,60,33.7C60,42.3,55.3,50.7,48,55.7z"/>
	<path d="M49.7,38.3l2.7-2.7c1.3-1.3,1.3-3.3,0-4.7c-1.3-1.3-3.3-1.3-4.7,0L45,33.7L42.3,31c-1.3-1.3-3.3-1.3-4.7,0
		c-1.3,1.3-1.3,3.3,0,4.7l2.7,2.7L37.7,41c-1.3,1.3-1.3,3.3,0,4.7c0.7,0.7,1.3,1,2.3,1c1,0,1.7-0.3,2.3-1L45,43l2.7,2.7
		c0.7,0.7,1.3,1,2.3,1c1,0,1.7-0.3,2.3-1c1.3-1.3,1.3-3.3,0-4.7L49.7,38.3z"/>
	<path d="M29,31c-1.3-1.3-3.3-1.3-4.7,0l-2.7,2.7L19,31c-1.3-1.3-3.3-1.3-4.7,0c-1.3,1.3-1.3,3.3,0,4.7l2.7,2.7L14.3,41
		c-1.3,1.3-1.3,3.3,0,4.7c0.7,0.7,1.3,1,2.3,1c1,0,1.7-0.3,2.3-1l2.7-2.7l2.7,2.7c0.7,0.7,1.3,1,2.3,1c1,0,1.7-0.3,2.3-1
		c1.3-1.3,1.3-3.3,0-4.7l-2.7-2.7l2.7-2.7C30.3,34.3,30.3,32.3,29,31z"/>
</g>
</svg>
