<?xml version="1.0" encoding="utf-8"?>
<!-- Generator: Adobe Illustrator 18.1.1, SVG Export Plug-In . SVG Version: 6.00 Build 0)  -->
<!DOCTYPE svg PUBLIC "-//W3C//DTD SVG 1.1//EN" "http://www.w3.org/Graphics/SVG/1.1/DTD/svg11.dtd">
<svg version="1.1" id="Capa_1" xmlns="http://www.w3.org/2000/svg" xmlns:xlink="http://www.w3.org/1999/xlink" x="0px" y="0px"
	 viewBox="0 0 720 720" enable-background="new 0 0 720 720" xml:space="preserve">
<path fill="#444444" d="M502.6,76.4c42.5,0,80.7,17.3,107.9,45.3c33.6-6.5,65.3-18.3,93.8-34.7c-11,33.5-34.5,61.5-64.8,79.2
	c29.8-3.5,58.4-11.3,84.8-22.6c-19.8,28.7-44.9,54-73.7,74.1c0.3,6.2,0.4,12.4,0.4,18.6c0,189.3-148.5,407.7-420.3,407.7
	c-83.4,0-161-23.8-226.4-64.4c11.5,1.4,23.3,2,35.2,2c69.2,0,132.9-22.9,183.4-61.3c-64.7-1.1-119.3-42.6-138-99.4
	c9,1.7,18.3,2.5,27.8,2.5c13.5,0,26.6-1.7,38.8-5.1C84,405,32.9,347.1,32.9,277.6c0-0.6,0-1.3,0-1.8c20,10.7,42.6,17.2,66.9,17.9
	c-39.7-25.7-65.7-69.5-65.7-119.3c0-26.3,7.3-50.9,20-72c72.8,86.5,181.7,143.4,304.5,149.5c-2.5-10.4-3.8-21.5-3.8-32.6
	C354.7,140.3,420.9,76.2,502.6,76.4L502.6,76.4z M724.1,143.4L724.1,143.4L724.1,143.4z"/>
</svg>
