<svg xmlns="http://www.w3.org/2000/svg" xmlns:xlink="http://www.w3.org/1999/xlink" xml:space="preserve" style="shape-rendering:geometricPrecision;text-rendering:geometricPrecision;image-rendering:optimizeQuality;" viewBox="0 0 1.58299 1.996875" x="0px" y="0px" fill-rule="evenodd" clip-rule="evenodd"><defs><style type="text/css">
   
    .fil0 {fill:black}
   
  </style></defs><g><path class="fil0" d="M0.791495 0l0 0c0.435333,0 0.791495,0.356162 0.791495,0.791495l0 0.0145126c0,0.435333 -0.356162,0.791495 -0.791495,0.791495l0 0c-0.435333,0 -0.791495,-0.356162 -0.791495,-0.791495l0 -0.0145126c0,-0.435333 0.356162,-0.791495 0.791495,-0.791495zm0.342747 0.389578l-0.53758 0.76888 0.335523 0c0.0515075,0 0.0910493,-0.0113071 0.118428,-0.0337675 0.02762,-0.022658 0.0521223,-0.0681717 0.0733313,-0.136958l0.0199795 0.00349092 -0.0385099 0.216679 -0.666326 0 0 -0.0222409 0.525043 -0.747057 -0.261797 0c-0.0434718,0 -0.0749779,0.00474238 -0.0945622,0.0140076 -0.0195623,0.00948476 -0.0343823,0.0232728 -0.0446794,0.0411885 -0.0102971,0.0179376 -0.0195623,0.051288 -0.0280152,0.100315l-0.0228776 0 0.0169057 -0.204537 0.605137 0z"/></g><text x="0" y="16.5975" fill="#000000" font-size="5px" font-weight="bold" font-family="'Helvetica Neue', Helvetica, Arial-Unicode, Arial, Sans-serif">Created by Nick Novell</text><text x="0" y="21.5975" fill="#000000" font-size="5px" font-weight="bold" font-family="'Helvetica Neue', Helvetica, Arial-Unicode, Arial, Sans-serif">from the Noun Project</text></svg>