<svg xmlns="http://www.w3.org/2000/svg" width="16" height="16" viewBox="0 0 16 16"><path fill="#444" d="M8 .198a8 8 0 0 0-2.53 15.59c.4.075.548-.173.548-.384 0-.19-.008-.82-.01-1.49-2.227.485-2.696-.943-2.696-.943-.364-.924-.888-1.17-.888-1.17-.726-.497.055-.486.055-.486.802.056 1.225.824 1.225.824.714 1.223 1.872.87 2.328.665.072-.517.28-.87.508-1.07-1.776-.202-3.644-.888-3.644-3.954A3.1 3.1 0 0 1 3.72 5.63c-.083-.202-.357-1.015.077-2.117 0 0 .672-.215 2.2.82A7.672 7.672 0 0 1 8 4.065c.68.004 1.365.093 2.004.27 1.527-1.035 2.198-.82 2.198-.82.435 1.102.162 1.916.08 2.117a3.09 3.09 0 0 1 .822 2.147c0 3.072-1.872 3.748-3.653 3.946.288.248.544.735.544 1.48 0 1.07-.01 1.933-.01 2.196 0 .213.145.462.55.384A8 8 0 0 0 8 .196z"/></svg>