<svg xmlns="http://www.w3.org/2000/svg" viewBox="0 0 512 512"><g fill="#444"><path d="M309.1 50.5v111.7c0 9.6.8 16.7 2.3 21.3 2.5 7 8 10.5 16.7 10.5 9.4 0 19.2-5.8 29.2-17.6V192h25.8V50.5h-25.8v108c-5.7 8.1-11.1 12.2-16.2 12.2-3.4 0-5.4-2.1-6-6.2-.2-.4-.3-3.7-.3-9.9v-104h-25.7zM250.1 193.9c13 0 23.1-4.8 30-14.5 5.3-7 7.9-18.1 7.9-33.5V96.4c0-15.1-2.6-26.2-7.9-33.2-7-9.6-17-14.5-30-14.5-12.7 0-22.6 4.8-29.8 14.5-5.3 7-7.9 18.1-7.9 33.2V146c0 15.1 2.6 26.3 7.9 33.5 7.2 9.6 17.1 14.4 29.8 14.4zM237.9 91.3c0-13 4.1-19.6 12.2-19.6s12.2 6.5 12.2 19.6v59.5c0 13.2-4.1 19.8-12.2 19.8s-12.2-6.6-12.2-19.8V91.3zM177.8 191.9v-76.8L212.1 2h-28.9l-19.3 74.6L143.8 2h-30c5.3 15.9 11.4 33.6 18.4 53 8.9 26.1 14.6 46.1 17.3 60.1v76.8h28.3zM442.4 236.4c-8.4-7.6-18.1-12-29.1-13.3-34.8-3.8-87.2-5.7-157.3-5.7-70.1 0-122.5 1.9-157 5.7-11.2 1.3-20.9 5.8-29.2 13.3-8.3 7.6-13.8 16.9-16.4 28.1-4.9 21.9-7.4 55-7.4 99.2 0 45 2.5 78 7.4 99.2 2.5 11.1 7.9 20.5 16.3 28.1 8.4 7.6 18.1 11.9 29.1 13 34.8 4 87.2 5.9 157.3 5.9 70.1 0 122.6-2 157.3-5.9 11-1.1 20.6-5.5 28.9-13 8.3-7.6 13.8-16.9 16.4-28.1 4.9-21.9 7.4-55 7.4-99.2 0-45-2.5-78-7.4-99.2-2.4-11.1-7.8-20.5-16.3-28.1zm-276.5 56.7h-30.3v161.3h-28.3V293.1H77.5v-26.6h88.4v26.6zm76.5 161.3h-25.2v-15.3c-10.2 11.5-19.8 17.3-28.9 17.3-8.7 0-14.2-3.5-16.4-10.5-1.5-4.5-2.3-11.4-2.3-20.7V314.4h25.2v103.2c0 6 .1 9.4.3 9.9.6 4 2.6 5.9 6 5.9 5.1 0 10.5-4 16.2-11.9V314.4h25.2l-.1 140zm96.4-41.9c0 13.8-.8 23.2-2.6 28.3-3.2 10.4-9.9 15.6-20.1 15.6-9.1 0-17.9-5.2-26.4-15.6v13.6h-25.2V266.5h25.2V328c8.1-10.2 16.9-15.3 26.4-15.3 10.2 0 16.9 5.3 20.1 15.9 1.7 4.9 2.6 14.3 2.6 28.1v55.8zm95.8-23.3h-50.7v24.7c0 13 4.3 19.6 13 19.6 6.2 0 10-3.4 11.3-10.2.4-1.9.6-7.7.6-17.3h25.8v3.7c0 9.3-.2 14.7-.6 16.4-.6 5.1-2.6 10.2-6 15.3-6.8 10-17 15-30.6 15-13 0-23.2-4.8-30.6-14.5-5.5-7-8.2-17.9-8.2-32.9v-49c0-14.9 2.6-25.9 7.9-32.9 7.4-9.6 17.5-14.5 30.3-14.5 12.7 0 22.7 4.8 30 14.5 5.1 7 7.7 18 7.7 32.9l.1 29.2z"/><path d="M396.7 335.7c-8.5 0-12.8 6.4-12.8 19.3v13h25.5v-13c0-12.9-4.2-19.3-12.7-19.3zM302.5 335.7c-4.3 0-8.6 2.1-12.8 6.2v85.3c4.2 4.2 8.4 6.2 12.8 6.2 7.4 0 11.1-6.3 11.1-19v-59.8c0-12.6-3.7-18.9-11.1-18.9z"/></g></svg>